<svg id="Layer_1" data-name="Layer 1" xmlns="http://www.w3.org/2000/svg" viewBox="0 0 62.5 70"><defs><style>.cls-1{fill:#f9af3d;}</style></defs><rect class="cls-1" x="37.5" width="10" height="70"/><rect class="cls-1" x="52.5" y="15" width="10" height="55"/><circle class="cls-1" cx="57.5" cy="5" r="5"/><path class="cls-1" d="M152.5,166.16a17.21,17.21,0,0,1-.18,2.5,17.55,17.55,0,0,1-14.82,14.82,17.45,17.45,0,0,1-5,0,17.39,17.39,0,0,1-10-5.09c-.34-.34-.66-.7-1-1.07l6.13-9.63a7.71,7.71,0,0,0,.27,1,7.48,7.48,0,0,0,4.57,4.56,7.32,7.32,0,0,0,5,0,7.48,7.48,0,0,0,4.57-4.56,7.51,7.51,0,0,0-4.57-9.56,7.15,7.15,0,0,0-2.5-.44,6.93,6.93,0,0,0-1.72.21,6.41,6.41,0,0,0-.78.23,7.39,7.39,0,0,0-4,3.31,17.09,17.09,0,0,1-5.74-3.75l-.28-.27a17.1,17.1,0,0,1-1.85-2.23,16.78,16.78,0,0,1-1.45-2.5,17.49,17.49,0,0,1,28.3-19.73c.34.34.66.7,1,1.07l-6.13,9.63a7.71,7.71,0,0,0-.27-1,7.48,7.48,0,0,0-4.57-4.56,7.32,7.32,0,0,0-5,0,7.48,7.48,0,0,0-4.57,4.56,7.51,7.51,0,0,0,4.57,9.56,7.15,7.15,0,0,0,2.5.44,6.93,6.93,0,0,0,1.72-.21,6.41,6.41,0,0,0,.78-.23,7.39,7.39,0,0,0,4-3.31,17.09,17.09,0,0,1,5.74,3.75l.28.27a17.1,17.1,0,0,1,1.85,2.23,16.78,16.78,0,0,1,1.45,2.5A17.27,17.27,0,0,1,152.5,166.16Z" transform="translate(-117.5 -113.66)"/></svg>