<svg id="svg2700" xmlns="http://www.w3.org/2000/svg" viewBox="0 0 882.96 662"><defs><style>.cls-1{fill:none;stroke:#4f2845;stroke-width:4px;}.cls-2,.cls-4{fill:#4f2845;}.cls-3,.cls-4{isolation:isolate;}.cls-4{font-size:60px;font-family:ArialMT, Arial;}</style></defs><g id="layer1"><g id="trapezium"><path id="path1" class="cls-1" d="M21.14,32l876-.93,1.22,658-439.68-1.22Z" transform="translate(-17.4 -29.09)"/><path id="path2" class="cls-1" d="M459.61,32,677,687.86" transform="translate(-17.4 -29.09)"/><path id="path3" class="cls-1" d="M167.91,251.25l729.23-.93" transform="translate(-17.4 -29.09)"/><path id="path4" class="cls-1" d="M315.62,470.49l579.67-1.86h.93v-.93" transform="translate(-17.4 -29.09)"/></g></g><g id="layer2"><g id="g3191"><path id="path3180" class="cls-2" d="M124.26,81.52a18,18,0,1,1-18-18A18,18,0,0,1,124.26,81.52Z" transform="translate(-17.4 -29.09)"/><g id="text3183" class="cls-3"><text class="cls-4" transform="translate(122.68 68.9)">i</text></g></g><g id="g3198"><path id="path3200" class="cls-2" d="M269.93,328.79a18,18,0,1,1-18-18A18,18,0,0,1,269.93,328.79Z" transform="translate(-17.4 -29.09)"/><g id="text3202" class="cls-3"><text class="cls-4" transform="translate(263.84 312.2)">e</text></g></g><g id="g5131"><path id="path5133" class="cls-2" d="M797,660.14a18,18,0,1,1-18-18A18,18,0,0,1,797,660.14Z" transform="translate(-17.4 -29.09)"/><g id="text5135" class="cls-3"><text class="cls-4" transform="translate(792.91 632.63)">ɑ</text></g></g><g id="g5147"><path id="path5149" class="cls-2" d="M836.59,119.21a18,18,0,1,1-18-18A18,18,0,0,1,836.59,119.21Z" transform="translate(-17.4 -29.09)"/><g id="text5151" class="cls-3"><text class="cls-4" transform="translate(831.87 101.27)">u</text></g></g><g id="g2544"><path id="path2546" class="cls-2" d="M884.24,437.84a18,18,0,1,1-18-18A18,18,0,0,1,884.24,437.84Z" transform="translate(-17.4 -29.09)"/><g id="text2548" class="cls-3"><text class="cls-4" transform="translate(795.52 394.25)">ɔ</text></g></g></g></svg>